<svg fill="none" height="24" viewBox="0 0 24 24" width="24" xmlns="http://www.w3.org/2000/svg"><path clip-rule="evenodd" d="m9.02977 3.3437c1.95363-.45827 3.98683-.45827 5.94053 0 2.8213.6618 5.0243 2.86473 5.6861 5.68607.4582 1.95363.4582 3.98683 0 5.94053-.6618 2.8213-2.8648 5.0243-5.6861 5.6861-1.9537.4582-3.9869.4582-5.94053 0-2.82134-.6618-5.02427-2.8648-5.68607-5.6861-.45827-1.9537-.45827-3.9869 0-5.94054.6618-2.82134 2.86472-5.02426 5.68607-5.68606zm3.57023 6.26308c0-.33137-.2686-.6-.6-.6s-.6.26863-.6.6v1.79322h-1.79322c-.33137 0-.6.2686-.6.6s.26863.6.6.6h1.79322v1.7932c0 .3314.2686.6.6.6s.6-.2686.6-.6v-1.7932h1.7932c.3314 0 .6-.2686.6-.6s-.2686-.6-.6-.6h-1.7932z" fill="#363853" fill-rule="evenodd"/></svg>