<svg fill="none" height="24" viewBox="0 0 24 24" width="24" xmlns="http://www.w3.org/2000/svg"><path clip-rule="evenodd" d="m4.68015 8.50289c.6025-2.56853 2.60803-4.57406 5.17656-5.17655 1.85499-.43512 3.78549-.43512 5.64039 0 2.5685.60249 4.5741 2.60802 5.1766 5.17655.4351 1.85491.4351 3.78541 0 5.64041-.6025 2.5685-2.6081 4.5741-5.1766 5.1765-1.8549.4352-3.7854.4352-5.64039 0-.62781-.1472-1.22198-.3783-1.77025-.6809-.09497 1.3198-1.19584 2.3611-2.53991 2.3611-1.40642 0-2.54655-1.1401-2.54655-2.5466 0-1.344 1.04127-2.4449 2.36113-2.5399-.30263-.5482-.53371-1.1424-.68098-1.7702-.43511-1.855-.43511-3.7855 0-5.64041zm3.82041 1.29229c0-.33754.27363-.61117.61117-.61117h3.05587c.3375 0 .6112.27363.6112.61117 0 .33752-.2737.61122-.6112.61122h-3.05587c-.33754 0-.61117-.2737-.61117-.61122zm1.62984 2.44472c-.33759 0-.61122.2736-.61122.6112 0 .3375.27363.6111.61122.6111h5.0931c.3375 0 .6111-.2736.6111-.6111 0-.3376-.2736-.6112-.6111-.6112z" fill="#363853" fill-rule="evenodd"/></svg>