<?xml version="1.0" ?><svg fill="none" height="24" viewBox="0 0 24 24" width="24" xmlns="http://www.w3.org/2000/svg"><path clip-rule="evenodd" d="M15.3258 4.05652C13.5835 3.64783 11.7703 3.64783 10.028 4.05652C7.73677 4.59396 5.94778 6.38295 5.41033 8.67416C5.00164 10.4165 5.00164 12.2297 5.41033 13.972C5.64547 14.9744 6.12015 15.8807 6.77165 16.6281C7.02368 16.9172 7.30218 17.1826 7.6035 17.4206C8.30362 17.9734 9.12697 18.3783 10.028 18.5897C11.7703 18.9984 13.5835 18.9984 15.3258 18.5897C17.617 18.0522 19.406 16.2632 19.9435 13.972C20.3522 12.2297 20.3522 10.4165 19.9435 8.67417C19.406 6.38296 17.617 4.59396 15.3258 4.05652ZM8.596 19.7077C8.94691 19.8473 9.31077 19.9621 9.68543 20.05C11.653 20.5116 13.7008 20.5116 15.6684 20.05C18.5142 19.3825 20.7363 17.1604 21.4038 14.3146C21.8654 12.347 21.8654 10.2992 21.4038 8.33161C20.7363 5.48577 18.5142 3.2637 15.6684 2.59615C13.7008 2.13461 11.653 2.13462 9.68543 2.59616C6.83958 3.2637 4.61752 5.48576 3.94997 8.33161C3.48843 10.2992 3.48843 12.347 3.94997 14.3146C4.03786 14.6892 4.15268 15.0531 4.29233 15.404C3.0936 15.8975 2.25 17.0768 2.25 18.4534C2.25 20.2741 3.72592 21.75 5.54655 21.75C6.92325 21.75 8.10248 20.9064 8.596 19.7077ZM6.38638 18.3592C6.65924 18.597 6.94914 18.8159 7.25412 19.0138C7.01878 19.7314 6.34299 20.25 5.54655 20.25C4.55435 20.25 3.75 19.4457 3.75 18.4534C3.75 17.657 4.26858 16.9812 4.98618 16.7459C5.10781 16.9333 5.23736 17.115 5.37435 17.2906C5.67698 17.6785 6.01597 18.0363 6.38638 18.3592ZM8.36173 9.79516C8.36173 9.38095 8.69752 9.04516 9.11173 9.04516H12.1676C12.5818 9.04516 12.9176 9.38095 12.9176 9.79516C12.9176 10.2094 12.5818 10.5452 12.1676 10.5452H9.11173C8.69752 10.5452 8.36173 10.2094 8.36173 9.79516ZM9.38035 12.851C9.38035 12.4368 9.71614 12.101 10.1304 12.101H15.2235C15.6377 12.101 15.9735 12.4368 15.9735 12.851C15.9735 13.2652 15.6377 13.601 15.2235 13.601H10.1304C9.71614 13.601 9.38035 13.2652 9.38035 12.851Z" fill="black" fill-rule="evenodd"/></svg>