<?xml version="1.0" ?><svg fill="none" height="24" viewBox="0 0 24 24" width="24" xmlns="http://www.w3.org/2000/svg"><path clip-rule="evenodd" d="M12 5.29287C11.0054 4.19054 9.60286 3.50555 8.19422 3.30921C6.44069 3.06479 4.54646 3.56663 3.38219 5.13139C1.87261 7.16024 1.8726 10.0295 3.38218 12.0583L8.51626 18.9584C10.2937 21.3472 13.7063 21.3472 15.4837 18.9584L20.6178 12.0583C22.1274 10.0295 22.1274 7.16024 20.6178 5.13139C19.4535 3.56663 17.5593 3.06479 15.8058 3.30921C14.3971 3.50555 12.9946 4.19054 12 5.29287ZM7.98714 4.79484C6.62698 4.60525 5.34172 5.01061 4.58561 6.02681C3.47146 7.5242 3.47146 9.66552 4.58561 11.1629L9.71969 18.063C10.8973 19.6457 13.1027 19.6457 14.2803 18.063L19.4144 11.1629C20.5285 9.66552 20.5285 7.5242 19.4144 6.02681C18.6583 5.01061 17.373 4.60525 16.0129 4.79484C14.6485 4.98501 13.3406 5.7628 12.6445 6.93221C12.5092 7.15939 12.2644 7.2986 12 7.2986C11.7356 7.2986 11.4908 7.15939 11.3555 6.93221C10.6594 5.7628 9.35146 4.98501 7.98714 4.79484Z" fill="black" fill-rule="evenodd"/></svg>