<svg fill="none" height="24" viewBox="0 0 24 24" width="24" xmlns="http://www.w3.org/2000/svg"><path d="m20.7972 11.7821c.2704-.2721.2704-.7134 0-.9855l-5.7308-5.76839c-.5864-.59032-1.0754-1.08257-1.5158-1.4208-.4649-.35701-.956-.60741-1.5506-.60741s-1.0857.2504-1.5506.60741c-.4404.33823-.92942.83048-1.51585 1.4208l-5.73078 5.76839c-.27036.2721-.27036.7134 0 .9855.27037.2721.70871.2721.97907 0l.39661-.3992v3.0503c0 2.9941 2.04749 5.5944 4.94351 6.2782 1.62994.3848 3.32614.3848 4.95604 0 2.896-.6838 4.9435-3.2841 4.9435-6.2782v-3.0503l.3967.3992c.2703.2721.7087.2721.979 0z" fill="#363853"/></svg>