<svg fill="none" height="24" viewBox="0 0 24 24" width="24" xmlns="http://www.w3.org/2000/svg"><path clip-rule="evenodd" d="m9.31745 3.32481c-2.97499.67257-5.30932 2.9589-6.02552 5.90161-.39162 1.60908-.38804 3.30228.00358 4.91138.72739 2.9887 2.86707 5.476 5.73742 6.635l.12512.0505c1.24215.5016 2.66505-.1025 3.17465-1.3331.1403-.3387.4743-.5634.8434-.5634h1.1238c3.0565 0 5.7155-2.0769 6.4329-5.0247.3563-1.4639.3563-2.9908 0-4.45469l-.0941-.38653c-.6915-2.8413-2.9454-5.04884-5.8178-5.69824l-.4036-.09123c-1.6007-.36188-3.263-.36188-4.86368 0zm-.81551 5.04188c-.38478 0-.6967.30947-.6967.69123s.31192.69124.6967.69124h6.38646c.3848 0 .6967-.30948.6967-.69124s-.3119-.69123-.6967-.69123zm1.16118 3.45621c-.38478 0-.6967.3094-.6967.6912 0 .3817.31192.6912.6967.6912h4.06408c.3848 0 .6967-.3095.6967-.6912 0-.3818-.3119-.6912-.6967-.6912z" fill="#363853" fill-rule="evenodd"/></svg>