<?xml version="1.0" ?><svg fill="none" height="24" viewBox="0 0 24 24" width="24" xmlns="http://www.w3.org/2000/svg"><path clip-rule="evenodd" d="M14.1084 4.00081C12.7114 3.6664 11.2611 3.6664 9.86413 4.00081L9.64108 4.0542C7.12384 4.65676 5.1229 6.71346 4.50665 9.39443C4.16244 10.8919 4.16535 12.4702 4.51003 13.9698C5.14644 16.7384 7.01453 19.0237 9.4926 20.0832L9.61076 20.1337L9.31593 20.8233L9.61076 20.1337C10.365 20.4561 11.2766 20.084 11.6158 19.217C11.8529 18.6108 12.4324 18.1768 13.1107 18.1768H14.1721C16.6859 18.1768 18.912 16.3647 19.5167 13.7341C19.8278 12.3808 19.8278 10.9687 19.5167 9.61542L19.4279 9.22889C18.8349 6.64932 16.91 4.67142 14.4895 4.09204L14.1084 4.00081ZM9.51493 2.54202C11.1415 2.15266 12.8311 2.15266 14.4576 2.54202L14.8387 2.63325C17.8441 3.35266 20.1765 5.78984 20.8897 8.89287L20.9786 9.2794C21.3405 10.8538 21.3405 12.4957 20.9786 14.0701C20.2281 17.3351 17.4318 19.6768 14.1721 19.6768H13.1107C13.092 19.6768 13.0406 19.6921 13.0127 19.7634C12.3891 21.3576 10.6131 22.1936 9.0211 21.5129L8.90294 21.4624C5.95924 20.2039 3.78571 17.5145 3.04815 14.3058C2.65311 12.5871 2.64926 10.7791 3.04477 9.05841C3.78134 5.85397 6.18969 3.338 9.29188 2.59541L9.51493 2.54202ZM7.94628 9.05793C7.94628 8.64372 8.28207 8.30793 8.69628 8.30793H14.7279C15.1422 8.30793 15.4779 8.64372 15.4779 9.05793C15.4779 9.47215 15.1422 9.80793 14.7279 9.80793H8.69628C8.28207 9.80793 7.94628 9.47215 7.94628 9.05793ZM7.94628 12.5141C7.94628 12.0999 8.28207 11.7641 8.69628 11.7641H12.5346C12.9488 11.7641 13.2846 12.0999 13.2846 12.5141C13.2846 12.9283 12.9488 13.2641 12.5346 13.2641H8.69628C8.28207 13.2641 7.94628 12.9283 7.94628 12.5141Z" fill="black" fill-rule="evenodd"/></svg>