<?xml version="1.0" ?><svg fill="none" height="24" viewBox="0 0 24 24" width="24" xmlns="http://www.w3.org/2000/svg"><path clip-rule="evenodd" d="M12 2.25C12.4142 2.25 12.75 2.58579 12.75 3V3.28752C13.2417 3.33717 13.729 3.43991 14.2023 3.59621C16.4174 4.32779 18.1113 6.13594 18.7047 8.39802L19.2917 10.6351L19.7622 12.7658C19.8037 12.954 19.8547 13.1619 19.9083 13.3804C20.0193 13.8334 20.1415 14.3316 20.2138 14.7934C20.2377 14.946 20.25 15.102 20.25 15.2604C20.25 16.6807 19.2538 17.9085 17.8621 18.1921L17.4945 18.267C16.8814 18.3919 16.2652 18.4956 15.6468 18.5783C15.641 18.6043 15.6348 18.6303 15.6285 18.6563L15.5465 18.9897C15.223 20.3052 14.1945 21.3315 12.8784 21.6464C12.3009 21.7845 11.6991 21.7845 11.1216 21.6464C9.80549 21.3315 8.77701 20.3052 8.45352 18.9896L8.37155 18.6563C8.36517 18.6303 8.35904 18.6044 8.35316 18.5783C7.73481 18.4956 7.11856 18.3919 6.50547 18.267L6.13787 18.1921C4.74616 17.9085 3.75 16.6807 3.75 15.2604C3.75 15.102 3.76233 14.946 3.78622 14.7934C3.8585 14.3316 3.98066 13.8334 4.09173 13.3804C4.14529 13.162 4.19627 12.954 4.23784 12.7658L4.70896 10.6322L5.3039 8.43645C5.92499 6.14416 7.67951 4.31734 9.92711 3.58877C10.3587 3.44886 10.8021 3.35245 11.25 3.29987V3C11.25 2.58579 11.5858 2.25 12 2.25ZM11.9577 4.75357C11.4276 4.76328 10.8982 4.85082 10.3896 5.01568C8.62052 5.58915 7.23925 7.02931 6.7517 8.82873L6.16604 10.9902L5.70255 13.0892C5.64427 13.3532 5.58402 13.5974 5.52617 13.8319C5.4251 14.2417 5.33135 14.6217 5.26817 15.0254C5.25626 15.1015 5.25 15.1799 5.25 15.2604C5.25 15.9725 5.74893 16.582 6.43731 16.7223L6.8049 16.7971C7.66203 16.9718 8.5257 17.1027 9.39264 17.19C11.2265 17.3747 13.075 17.3641 14.9071 17.1581C15.6734 17.0719 16.4368 16.9516 17.1951 16.7971L17.5627 16.7223C18.2511 16.582 18.75 15.9725 18.75 15.2604C18.75 15.1799 18.7437 15.1015 18.7318 15.0254C18.6686 14.6217 18.5749 14.2416 18.4738 13.8319C18.416 13.5974 18.3557 13.3532 18.2974 13.0892L17.8333 10.9873L17.2539 8.77868C16.7887 7.00574 15.4622 5.592 13.7319 5.02054C13.1903 4.84168 12.6236 4.75259 12.0563 4.75266C12.0377 4.75404 12.0189 4.75474 12 4.75474C11.9858 4.75474 11.9717 4.75434 11.9577 4.75357ZM9.94103 18.7439C10.1598 19.4624 10.7411 20.013 11.4706 20.1875C11.8187 20.2708 12.1813 20.2708 12.5294 20.1875C13.2589 20.013 13.8402 19.4624 14.059 18.7439C12.6882 18.8467 11.3118 18.8467 9.94103 18.7439Z" fill="black" fill-rule="evenodd"/></svg>