<?xml version="1.0" ?><svg fill="none" height="24" viewBox="0 0 24 24" width="24" xmlns="http://www.w3.org/2000/svg"><path clip-rule="evenodd" d="M14.7602 4.41778C12.9447 3.99192 11.0553 3.99192 9.23977 4.41779C6.84719 4.97901 4.97905 6.84715 4.41782 9.23973C3.99196 11.0553 3.99196 12.9447 4.41782 14.7602C4.97905 17.1528 6.8472 19.0209 9.23978 19.5821C11.0553 20.008 12.9447 20.008 14.7602 19.5821C17.1528 19.0209 19.021 17.1528 19.5822 14.7602C20.008 12.9447 20.008 11.0553 19.5822 9.23974C19.021 6.84716 17.1528 4.97901 14.7602 4.41778ZM8.89722 2.95742C10.938 2.47871 13.062 2.47871 15.1028 2.95742C18.05 3.64875 20.3512 5.94996 21.0425 8.89718C21.5213 10.938 21.5213 13.0619 21.0425 15.1027C20.3512 18.05 18.05 20.3512 15.1028 21.0425C13.062 21.5212 10.938 21.5212 8.89722 21.0425C5.95 20.3512 3.64879 18.05 2.95746 15.1028C2.47875 13.0619 2.47875 10.938 2.95746 8.89718C3.64879 5.94996 5.95 3.64875 8.89722 2.95742Z" fill="black" fill-rule="evenodd"/><path clip-rule="evenodd" d="M10.7425 9.80841C10.6186 9.88771 10.5 10.0553 10.5 10.306L10.5 13.694C10.5 13.9448 10.6186 14.1124 10.7425 14.1917C10.8589 14.2661 10.9838 14.2727 11.1104 14.1917L13.7575 12.4977C13.8998 12.4066 14 12.2272 14 12C14 11.7729 13.8998 11.5935 13.7575 11.5024L11.1104 9.80841C10.9838 9.72738 10.8589 9.73393 10.7425 9.80841ZM9.93396 8.54498C10.5039 8.18027 11.2613 8.12408 11.919 8.54498L14.566 10.239C15.208 10.6498 15.5 11.3488 15.5 12C15.5 12.6513 15.208 13.3503 14.566 13.7611L11.919 15.4551C11.2613 15.876 10.5039 15.8198 9.93396 15.4551C9.37161 15.0952 9 14.4472 9 13.694L9 10.306C9 9.55291 9.37161 8.90486 9.93396 8.54498Z" fill="black" fill-rule="evenodd"/></svg>