<?xml version="1.0" encoding="utf-8"?><!-- Uploaded to: SVG Repo, www.svgrepo.com, Generator: SVG Repo Mixer Tools -->
<svg width="800px" height="800px" viewBox="0 0 24 24" fill="none" xmlns="http://www.w3.org/2000/svg">
<path fill-rule="evenodd" clip-rule="evenodd" d="M9.02977 3.3437C10.9834 2.88543 13.0166 2.88543 14.9703 3.3437C17.7916 4.0055 19.9946 6.20843 20.6564 9.02977C21.1146 10.9834 21.1146 13.0166 20.6564 14.9703C19.9946 17.7916 17.7916 19.9946 14.9703 20.6564C13.0166 21.1146 10.9834 21.1146 9.02977 20.6564C6.20843 19.9946 4.0055 17.7916 3.3437 14.9703C2.88543 13.0166 2.88543 10.9834 3.3437 9.02976C4.0055 6.20842 6.20842 4.0055 9.02977 3.3437ZM10.4461 10.3783C10.4461 10.0988 10.5795 9.9006 10.7326 9.80262C10.8797 9.7085 11.049 9.69832 11.212 9.80262L13.746 11.4243C13.9216 11.5366 14.0325 11.7492 14.0325 12C14.0325 12.2508 13.9216 12.4634 13.746 12.5757L11.212 14.1974C11.049 14.3017 10.8797 14.2915 10.7326 14.1974C10.5795 14.0994 10.4461 13.9012 10.4461 13.6217L10.4461 10.3783ZM11.8589 8.79187C11.271 8.41568 10.5957 8.46556 10.0858 8.79187C9.58194 9.11432 9.2461 9.6969 9.2461 10.3783V13.6217C9.2461 14.3031 9.58194 14.8857 10.0858 15.2081C10.5957 15.5344 11.271 15.5843 11.8589 15.2081L14.3929 13.5865C14.9681 13.2183 15.2325 12.5901 15.2325 12C15.2325 11.4099 14.9681 10.7817 14.3929 10.4135L11.8589 8.79187Z" fill="#363853"/>
</svg>