<?xml version="1.0" ?><svg fill="none" height="24" viewBox="0 0 24 24" width="24" xmlns="http://www.w3.org/2000/svg"><path clip-rule="evenodd" d="M13.6098 4.04591C11.9278 3.65136 10.1773 3.65136 8.49528 4.04591C6.28757 4.56377 4.56377 6.28757 4.04591 8.49528C3.65136 10.1773 3.65136 11.9278 4.04591 13.6098C4.56377 15.8175 6.28757 17.5413 8.49528 18.0591C10.1773 18.4537 11.9278 18.4537 13.6098 18.0591C15.8175 17.5413 17.5413 15.8175 18.0591 13.6098C18.4537 11.9278 18.4537 10.1773 18.0591 8.49528C17.5413 6.28757 15.8175 4.56377 13.6098 4.04591ZM8.15272 2.58555C10.06 2.13815 12.045 2.13815 13.9523 2.58555C16.7147 3.23351 18.8715 5.39037 19.5195 8.15273C19.9669 10.06 19.9669 12.045 19.5195 13.9523C19.2549 15.0803 18.7387 16.1073 18.0325 16.9718L21.5303 20.4697C21.8232 20.7626 21.8232 21.2374 21.5303 21.5303C21.2374 21.8232 20.7626 21.8232 20.4697 21.5303L16.9718 18.0325C16.1073 18.7387 15.0803 19.2549 13.9523 19.5195C12.045 19.9669 10.06 19.9669 8.15273 19.5195C5.39038 18.8715 3.23351 16.7147 2.58555 13.9523C2.13815 12.045 2.13815 10.06 2.58555 8.15272C3.23351 5.39037 5.39037 3.23351 8.15272 2.58555Z" fill="black" fill-rule="evenodd"/></svg>