<svg fill="none" height="24" viewBox="0 0 24 24" width="24" xmlns="http://www.w3.org/2000/svg"><path d="m13.8031 3.30948c-1.7592-.41264-3.5899-.41264-5.34903 0-2.55267.59877-4.54582 2.59192-5.14459 5.14459-.41264 1.75913-.41264 3.58983 0 5.34903.59877 2.5526 2.59192 4.5458 5.14459 5.1446 1.75913.4126 3.58983.4126 5.34903 0 1.0324-.2422 1.9733-.7125 2.7675-1.3556l3.1964 3.1963c.282.2821.7394.2821 1.0214 0 .2821-.282.2821-.7394 0-1.0214l-3.1963-3.1964c.6431-.7942 1.1134-1.7351 1.3556-2.7675.4126-1.7592.4126-3.5899 0-5.34903-.5988-2.55267-2.592-4.54582-5.1446-5.14459z" fill="#363853"/></svg>