<?xml version="1.0" ?><svg fill="none" height="24" viewBox="0 0 24 24" width="24" xmlns="http://www.w3.org/2000/svg"><path clip-rule="evenodd" d="M4.49262 4.18089C5.50602 3.25647 7.02936 2.90131 8.46423 3.66761L17.7881 8.64709C20.4061 10.0452 20.4035 13.9831 17.7832 15.3772L8.46426 20.3351C7.02854 21.0989 5.506 20.7416 4.49399 19.8159C3.48691 18.8948 2.95774 17.3947 3.42831 15.83L4.57546 12.0156L3.42219 8.1661C2.95316 6.60054 3.48418 5.10079 4.49262 4.18089ZM5.91615 12.766L4.86475 16.262C4.56933 17.2444 4.90043 18.1549 5.50635 18.7091C6.10734 19.2588 6.95052 19.4414 7.75972 19.0108L17.0787 14.0529C18.639 13.2228 18.6409 10.803 17.0815 9.97022L7.7576 4.99074C6.94877 4.55878 6.10521 4.74021 5.50352 5.28908C4.89687 5.84246 4.56461 6.75269 4.85909 7.73562L5.91676 11.266H8.32953C8.74374 11.266 9.07953 11.6018 9.07953 12.016C9.07953 12.4302 8.74374 12.766 8.32953 12.766H5.91615Z" fill="black" fill-rule="evenodd"/></svg>